<?xml version="1.0" ?>
<svg xmlns="http://www.w3.org/2000/svg" xmlns:dc="http://purl.org/dc/elements/1.1/" xmlns:cc="http://creativecommons.org/ns#" xmlns:rdf="http://www.w3.org/1999/02/22-rdf-syntax-ns#" xmlns:svg="http://www.w3.org/2000/svg" viewBox="0.000000 0.000000 1000.000000 1000.000000" id="Tutorial" version="1.1">
  <defs></defs>
  <g id="graph-misc">
    <g id="graph-background">
      <path style="fill:#ffffff;fill-opacity:1.000000;fill-rule:nonzero;" d=" M 0.000000 0.000000 L 1000.000000 0.000000 L 1000.000000 1000.000000 L 0.000000 1000.000000 Z"></path></g></g>
  <g id="elements">
    <g id="graph-background">
      <path style="fill:#ffffff;fill-opacity:1.000000;fill-rule:nonzero;" d=" M 0.000000 0.000000 L 1000.000000 0.000000 L 1000.000000 1000.000000 L 0.000000 1000.000000 Z"></path></g>
    <g id="egde-1-2">
      <path style="fill:#000000;fill-opacity:1.000000;stroke:#000000;stroke-width:1.000000px;" d=" M 112.509869 1098.999771 L -152.223697 1101.069674"></path></g>
    <g id="egde-1-3">
      <path style="fill:#000000;fill-opacity:1.000000;stroke:#000000;stroke-width:1.000000px;" d=" M -262.590662 -96.019618 L 650.502949 305.328309"></path></g>
    <g id="egde-1-4">
      <path style="fill:#000000;fill-opacity:1.000000;stroke:#000000;stroke-width:1.000000px;" d=" M -214.258019 809.731510 L 1054.021609 865.083513"></path></g>
    <g id="egde-4-3">
      <path style="fill:#000000;fill-opacity:1.000000;stroke:#000000;stroke-width:1.000000px;" d=" M 441.789440 1219.050721 L 305.251871 1103.578123"></path></g>
    <g id="node-2">
      <path style="fill:#ffff00;fill-opacity:1.000000;fill-rule:nonzero;" transform="translate(-392.657892,983.442790)" d=" m -20.000000 0 a 20.000000,20.000000 0 1 0 40.000000,0 20.000000,20.000000 0 1 0 -40.000000,0 z"></path></g>
    <g id="node-4">
      <path style="fill:#ffff00;fill-opacity:1.000000;fill-rule:nonzero;" transform="translate(514.520408,883.306607)" d=" m -20.000000 0 a 20.000000,20.000000 0 1 0 40.000000,0 20.000000,20.000000 0 1 0 -40.000000,0 z"></path></g>
    <g id="node-3">
      <path style="fill:#ffff00;fill-opacity:1.000000;fill-rule:nonzero;" transform="translate(98.653596,356.721206)" d=" m -20.000000 0 a 20.000000,20.000000 0 1 0 40.000000,0 20.000000,20.000000 0 1 0 -40.000000,0 z"></path></g>
    <g id="node-1">
      <path style="fill:#ffff00;fill-opacity:1.000000;fill-rule:nonzero;" transform="translate(1235.240768,309.786611)" d=" m -20.000000 0 a 20.000000,20.000000 0 1 0 40.000000,0 20.000000,20.000000 0 1 0 -40.000000,0 z"></path></g></g></svg>